<svg xmlns="http://www.w3.org/2000/svg" width="1200" height="630" viewBox="0 0 1200 630" role="img" aria-labelledby="title desc">
  <title id="title">ai.diy — Bring your own keys.</title>
  <desc id="desc">A local-first AI workspace for cloud and local models on a cinematic orange, iris, and cyan technical field.</desc>
  <defs>
    <filter id="blur" x="-50%" y="-50%" width="200%" height="200%">
      <feGaussianBlur stdDeviation="72"/>
    </filter>
    <linearGradient id="flux" x1="0" y1="0" x2="1" y2="0">
      <stop offset="0" stop-color="#ff5e1f"/>
      <stop offset="0.54" stop-color="#6366f1"/>
      <stop offset="1" stop-color="#02b8cc"/>
    </linearGradient>
    <linearGradient id="fade" x1="0" y1="0" x2="0" y2="1">
      <stop offset="0.45" stop-color="#040506" stop-opacity="0"/>
      <stop offset="1" stop-color="#040506"/>
    </linearGradient>
    <pattern id="grid" width="32" height="32" patternUnits="userSpaceOnUse">
      <path d="M32 0H0V32" fill="none" stroke="#fff" stroke-opacity="0.035" stroke-width="0.5"/>
    </pattern>
  </defs>
  <rect width="1200" height="630" fill="#040506"/>
  <g filter="url(#blur)" opacity="0.78">
    <ellipse cx="295" cy="275" rx="330" ry="175" fill="#ff5e1f"/>
    <ellipse cx="650" cy="245" rx="380" ry="200" fill="#6366f1"/>
    <ellipse cx="1010" cy="310" rx="300" ry="185" fill="#02b8cc"/>
  </g>
  <path d="M-40 350 1240 145v140L-40 492Z" fill="url(#flux)" opacity="0.17"/>
  <rect width="1200" height="630" fill="url(#grid)"/>
  <rect width="1200" height="630" fill="url(#fade)"/>
  <g transform="translate(64 42)" fill="none" stroke="#fff" stroke-width="1.4">
    <path d="M0 6.5 11 0l11 6.5v13L11 26 0 19.5Z"/>
    <path d="m.7 6.9 10.3 6 10.3-6M11 13v13"/>
  </g>
  <text x="100" y="62" fill="#fff" font-family="Inter, Arial, sans-serif" font-size="18" font-weight="600" letter-spacing="-0.4">ai.diy</text>
  <g transform="translate(1000 37)">
    <rect width="136" height="38" rx="19" fill="#040506" fill-opacity="0.56" stroke="#fff" stroke-opacity="0.3"/>
    <text x="68" y="24" text-anchor="middle" fill="#d0d6e0" font-family="Courier New, monospace" font-size="11" letter-spacing="1">LOCAL-FIRST</text>
  </g>
  <text x="600" y="260" text-anchor="middle" fill="#fff" font-family="Inter, Arial, sans-serif" font-size="88" font-weight="600" letter-spacing="-4">Bring your own keys.</text>
  <text x="600" y="316" text-anchor="middle" fill="#eef1f5" fill-opacity="0.82" font-family="Inter, Arial, sans-serif" font-size="23">One local-first workspace for cloud and local models.</text>
  <g transform="translate(270 366)">
    <rect width="660" height="70" rx="12" fill="#040506" fill-opacity="0.68" stroke="#fff" stroke-opacity="0.35"/>
    <path d="M32 26h18M41 17v18" stroke="#a5a7aa" stroke-linecap="round"/>
    <text x="66" y="43" fill="#a5a7aa" font-family="Inter, Arial, sans-serif" font-size="16">What do you want to work on?</text>
    <rect x="602" y="10" width="50" height="50" rx="8" fill="#d0d6e0"/>
    <path d="m620 35 14-14m-9 0h9v9" fill="none" stroke="#303235" stroke-width="2" stroke-linecap="round" stroke-linejoin="round"/>
  </g>
  <text x="600" y="492" text-anchor="middle" fill="#a5a7aa" font-family="Courier New, monospace" font-size="12" letter-spacing="2">BYOK  |  17 PROVIDERS  |  BROWSER-PERSISTED DATA  |  MIT</text>
  <path d="M64 554H1136" stroke="#fff" stroke-opacity="0.14" stroke-width="0.5"/>
  <text x="64" y="586" fill="#77797c" font-family="Courier New, monospace" font-size="11" letter-spacing="1.4">OPEN TOOLS FOR USEFUL THINKING</text>
  <text x="1136" y="586" text-anchor="end" fill="#77797c" font-family="Courier New, monospace" font-size="11" letter-spacing="1.4">NODE / DOCKER / YOUR PROVIDERS</text>
</svg>
